<svg width="21" height="21" viewBox="0 0 21 21" fill="none" xmlns="http://www.w3.org/2000/svg">
<rect width="21" height="21" rx="4" fill="#418143"/>
<path d="M16.7097 7.45916C16.5235 6.97793 16.255 6.54185 15.9193 6.17532C15.5833 5.80769 15.1872 5.51555 14.7525 5.31477C14.3017 5.10575 13.8182 4.99876 13.3301 5.00001C12.6453 5.00001 11.9772 5.20933 11.3966 5.60472C11.2577 5.6993 11.1257 5.80319 11.0007 5.91638C10.8757 5.80319 10.7437 5.6993 10.6048 5.60472C10.0242 5.20933 9.35605 5.00001 8.67125 5.00001C8.17814 5.00001 7.70031 5.10545 7.24887 5.31477C6.81271 5.51634 6.41961 5.80629 6.08207 6.17532C5.74591 6.54143 5.47739 6.97762 5.2917 7.45916C5.09862 7.95998 5 8.49182 5 9.03916C5 9.55549 5.09446 10.0935 5.28198 10.6409C5.43894 11.0983 5.66396 11.5727 5.9515 12.0519C6.40711 12.8101 7.03357 13.6008 7.81143 14.4025C9.10047 15.7313 10.377 16.6492 10.4312 16.6864L10.7604 16.9221C10.9062 17.026 11.0938 17.026 11.2396 16.9221L11.5688 16.6864C11.623 16.6476 12.8981 15.7313 14.1886 14.4025C14.9664 13.6008 15.5929 12.8101 16.0485 12.0519C16.336 11.5727 16.5624 11.0983 16.718 10.6409C16.9055 10.0935 17 9.55549 17 9.03916C17.0014 8.49182 16.9028 7.95998 16.7097 7.45916V7.45916Z" fill="#EEEEEE"/>
</svg>
