<svg width="16" height="17" viewBox="0 0 16 17" fill="none" xmlns="http://www.w3.org/2000/svg">
<path d="M15.4286 0.5H0.571429C0.255357 0.5 0 0.825 0 1.22727V15.7727C0 16.175 0.255357 16.5 0.571429 16.5H15.4286C15.7446 16.5 16 16.175 16 15.7727V1.22727C16 0.825 15.7446 0.5 15.4286 0.5ZM13.9857 2.975L8.35179 8.55455C8.2125 8.69318 8.01786 8.69318 7.87857 8.55455L2.24286 2.975C2.22161 2.95413 2.20603 2.92533 2.19829 2.89262C2.19056 2.85992 2.19106 2.82495 2.19972 2.79263C2.20838 2.7603 2.22478 2.73224 2.2466 2.71237C2.26843 2.69249 2.29459 2.68181 2.32143 2.68182H13.9071C13.934 2.68181 13.9601 2.69249 13.982 2.71237C14.0038 2.73224 14.0202 2.7603 14.0289 2.79263C14.0375 2.82495 14.038 2.85992 14.0303 2.89262C14.0225 2.92533 14.007 2.95413 13.9857 2.975Z" fill="#3C3A3A"/>
</svg>
