<svg width="16" height="17" viewBox="0 0 16 17" fill="none" xmlns="http://www.w3.org/2000/svg">
<path d="M11.7895 0.5C12.4339 0.499964 13.0539 0.746169 13.5227 1.18824C13.9916 1.63031 14.2738 2.23483 14.3116 2.87811L14.3158 3.02632V11.4474H14.9474C15.4922 11.4474 15.9411 11.8617 15.9949 12.3922L16 12.5V13.9737C16 14.6181 15.7538 15.2381 15.3118 15.707C14.8697 16.1758 14.2652 16.458 13.6219 16.4958L13.4737 16.5H5.05263C4.40824 16.5 3.7882 16.2538 3.31936 15.8118C2.85052 15.3697 2.56833 14.7652 2.53053 14.1219L2.52632 13.9737V5.55263H1.05263C0.792035 5.55275 0.540659 5.4562 0.347145 5.28166C0.153631 5.10713 0.0317377 4.86702 0.00505267 4.60779L3.92459e-09 4.5V3.02632C-3.5892e-05 2.38193 0.246169 1.76188 0.688239 1.29304C1.13031 0.824205 1.73483 0.542015 2.37811 0.504211L2.52632 0.5H11.7895ZM14.3158 13.1316H6.73684V13.9737C6.73684 14.2684 6.68632 14.5522 6.59368 14.8158H13.4737C13.697 14.8158 13.9112 14.7271 14.0691 14.5691C14.2271 14.4112 14.3158 14.197 14.3158 13.9737V13.1316ZM8.42105 8.07895H6.73684C6.52221 8.07919 6.31576 8.16137 6.15969 8.30871C6.00362 8.45606 5.9097 8.65743 5.89712 8.8717C5.88454 9.08597 5.95425 9.29695 6.09201 9.46154C6.22977 9.62613 6.42518 9.73191 6.63832 9.75726L6.73684 9.76316H8.42105C8.63569 9.76292 8.84213 9.68073 8.99821 9.53339C9.15428 9.38605 9.2482 9.18467 9.26078 8.9704C9.27336 8.75614 9.20364 8.54515 9.06588 8.38056C8.92812 8.21597 8.73271 8.11019 8.51958 8.08484L8.42105 8.07895ZM10.1053 4.71053H6.73684C6.5135 4.71053 6.29931 4.79925 6.14138 4.95717C5.98346 5.1151 5.89474 5.32929 5.89474 5.55263C5.89474 5.77597 5.98346 5.99016 6.14138 6.14809C6.29931 6.30602 6.5135 6.39474 6.73684 6.39474H10.1053C10.3286 6.39474 10.5428 6.30602 10.7007 6.14809C10.8586 5.99016 10.9474 5.77597 10.9474 5.55263C10.9474 5.32929 10.8586 5.1151 10.7007 4.95717C10.5428 4.79925 10.3286 4.71053 10.1053 4.71053ZM2.52632 2.18421C2.30298 2.18421 2.08878 2.27293 1.93086 2.43086C1.77293 2.58878 1.68421 2.80298 1.68421 3.02632V3.86842H2.52632V2.18421Z" fill="#3C3A3A"/>
</svg>
