<svg width="16" height="17" viewBox="0 0 16 17" fill="none" xmlns="http://www.w3.org/2000/svg">
<path d="M15.36 0.5H0.64C0.286 0.5 0 0.786 0 1.14V15.86C0 16.214 0.286 16.5 0.64 16.5H15.36C15.714 16.5 16 16.214 16 15.86V1.14C16 0.786 15.714 0.5 15.36 0.5ZM12.306 6.294C12.312 6.388 12.312 6.486 12.312 6.582C12.312 9.518 10.076 12.9 5.99 12.9C4.73 12.9 3.562 12.534 2.578 11.904C2.758 11.924 2.93 11.932 3.114 11.932C4.154 11.932 5.11 11.58 5.872 10.984C4.896 10.964 4.076 10.324 3.796 9.444C4.138 9.494 4.446 9.494 4.798 9.404C4.29545 9.3019 3.84375 9.02896 3.51963 8.63157C3.19551 8.23417 3.01897 7.73681 3.02 7.224V7.196C3.314 7.362 3.66 7.464 4.022 7.478C3.71768 7.27519 3.46812 7.00042 3.29542 6.67806C3.12273 6.3557 3.03225 5.9957 3.032 5.63C3.032 5.216 3.14 4.838 3.334 4.51C3.8918 5.19667 4.58786 5.75828 5.37693 6.15833C6.166 6.55838 7.03042 6.78791 7.914 6.832C7.6 5.322 8.728 4.1 10.084 4.1C10.724 4.1 11.3 4.368 11.706 4.8C12.208 4.706 12.688 4.518 13.116 4.266C12.95 4.78 12.602 5.214 12.14 5.488C12.588 5.44 13.02 5.316 13.42 5.142C13.118 5.586 12.74 5.98 12.306 6.294Z" fill="#3C3A3A"/>
</svg>
