<svg width="18" height="17" viewBox="0 0 18 17" fill="none" xmlns="http://www.w3.org/2000/svg">
<path d="M9 16.4999C13.4183 16.4999 17 12.9182 17 8.49996C17 4.0817 13.4183 0.5 9 0.5C4.58172 0.5 1 4.0817 1 8.49996C1 12.9182 4.58172 16.4999 9 16.4999Z" stroke="#3C3A3A" stroke-linecap="round" stroke-linejoin="round"/>
<path d="M2.69531 13.4221C4.3768 9.93966 3.3755 5.43289 6.08768 4.72332C8.79987 4.01374 10.5736 5.22415 11.9928 5.64164C13.412 6.05912 14.5893 6.28015 14.8512 7.60256C15.2267 9.50208 9.05029 12.8572 10.3653 16.5" stroke="#3C3A3A" stroke-linecap="round" stroke-linejoin="round"/>
<path d="M9.1316 9.60583C10.3208 10.5446 11.5487 10.2328 14.265 9.09494M11.1759 5.35096C11.1759 4.5052 9.63243 3.82614 8.67578 4.57739" stroke="#3C3A3A" stroke-linecap="round" stroke-linejoin="round"/>
<path d="M7.90276 7.91573C8.58256 7.91573 9.13364 7.36465 9.13364 6.68486C9.13364 6.00506 8.58256 5.45398 7.90276 5.45398C7.22296 5.45398 6.67188 6.00506 6.67188 6.68486C6.67188 7.36465 7.22296 7.91573 7.90276 7.91573Z" stroke="#3C3A3A" stroke-linecap="round" stroke-linejoin="round"/>
<path d="M7.90188 7.16495C8.16697 7.16495 8.38187 6.95005 8.38187 6.68495C8.38187 6.41986 8.16697 6.20496 7.90188 6.20496C7.63678 6.20496 7.42188 6.41986 7.42188 6.68495C7.42188 6.95005 7.63678 7.16495 7.90188 7.16495Z" stroke="#3C3A3A" stroke-linecap="round" stroke-linejoin="round"/>
<path d="M13.0345 8.4128C13.1937 8.4128 13.3228 8.28369 13.3228 8.12443C13.3228 7.96517 13.1937 7.83606 13.0345 7.83606C12.8752 7.83606 12.7461 7.96517 12.7461 8.12443C12.7461 8.28369 12.8752 8.4128 13.0345 8.4128Z" fill="#3C3A3A"/>
<path d="M15.8356 8.12406C15.7429 6.44211 15.0335 4.85333 13.8431 3.66151C12.6526 2.4697 11.0647 1.75847 9.38281 1.66382" stroke="#3C3A3A" stroke-linecap="round" stroke-linejoin="round"/>
</svg>
