<svg width="16" height="17" viewBox="0 0 16 17" fill="none" xmlns="http://www.w3.org/2000/svg">
<path d="M14.2857 16.5H1.71429C0.767857 16.5 0 15.7321 0 14.7857V2.21429C0 1.26786 0.767857 0.5 1.71429 0.5H14.2857C15.2321 0.5 16 1.26786 16 2.21429V14.7857C16 15.7321 15.2321 16.5 14.2857 16.5ZM8.50357 5.71071L3.65714 10.5571L3.43214 12.5964C3.40357 12.8679 3.63214 13.1 3.90714 13.0714L5.94643 12.8464L10.7929 8C10.875 7.91786 10.875 7.78214 10.7929 7.69643L8.81071 5.71429C8.72143 5.62857 8.58572 5.62857 8.50357 5.71071ZM12.3214 5.25357L11.2464 4.17857C10.9107 3.84286 10.3679 3.84286 10.0357 4.17857L9.21071 5.00357C9.12857 5.08571 9.12857 5.22143 9.21071 5.30714L11.1929 7.28929C11.275 7.37143 11.4107 7.37143 11.4964 7.28929L12.3214 6.46429C12.6536 6.13214 12.6536 5.58929 12.3214 5.25357Z" fill="#3C3A3A"/>
</svg>
