<svg width="21" height="21" viewBox="0 0 21 21" fill="none" xmlns="http://www.w3.org/2000/svg">
<rect width="21" height="21" rx="4" fill="#418143"/>
<path d="M5.26316 17H5.89474V8.78947H5.26316C4.92815 8.78947 4.60686 8.92256 4.36997 9.15944C4.13308 9.39633 4 9.71762 4 10.0526V15.7368C4 16.0719 4.13308 16.3931 4.36997 16.63C4.60686 16.8669 4.92815 17 5.26316 17ZM15.3684 8.78947H10.9474L11.656 6.66232C11.7192 6.47247 11.7365 6.27032 11.7063 6.07252C11.6761 5.87471 11.5993 5.68691 11.4823 5.52459C11.3653 5.36226 11.2114 5.23005 11.0333 5.13884C10.8552 5.04764 10.658 5.00005 10.4579 5H10.3158L7.15789 8.43453V17H14.1053L16.576 11.5709L16.6316 11.3158V10.0526C16.6316 9.71762 16.4985 9.39633 16.2616 9.15944C16.0247 8.92256 15.7034 8.78947 15.3684 8.78947Z" fill="#EEEEEE"/>
</svg>
