<svg width="21" height="21" viewBox="0 0 21 21" fill="none" xmlns="http://www.w3.org/2000/svg">
<g clip-path="url(#clip0_458_33761)">
<path d="M13.8017 5.83334H8.75V4.66667H13.2883C13.1235 4.07962 13.0845 3.46436 13.1739 2.8612C13.2634 2.25803 13.4793 1.68058 13.8075 1.16667H4.66667C4.35725 1.16667 4.0605 1.28959 3.84171 1.50838C3.62292 1.72717 3.5 2.02392 3.5 2.33334V18.6667C3.5 18.9761 3.62292 19.2728 3.84171 19.4916C4.0605 19.7104 4.35725 19.8333 4.66667 19.8333H16.3333C16.6428 19.8333 16.9395 19.7104 17.1583 19.4916C17.3771 19.2728 17.5 18.9761 17.5 18.6667V7.87501C16.7612 7.87513 16.0345 7.68791 15.3877 7.33086C14.7409 6.9738 14.1952 6.45857 13.8017 5.83334ZM7.58333 15.1667H6.41667V14H7.58333V15.1667ZM7.58333 12.8333H6.41667V11.6667H7.58333V12.8333ZM7.58333 10.5H6.41667V9.33334H7.58333V10.5ZM7.58333 8.16667H6.41667V7.00001H7.58333V8.16667ZM7.58333 5.83334H6.41667V4.66667H7.58333V5.83334ZM14.5833 15.1667H8.75V14H14.5833V15.1667ZM14.5833 12.8333H8.75V11.6667H14.5833V12.8333ZM14.5833 10.5H8.75V9.33334H14.5833V10.5ZM14.5833 8.16667H8.75V7.00001H14.5833V8.16667Z" fill="#0C230C"/>
<path d="M20.5957 2.0764C20.5047 1.8413 20.3735 1.62826 20.2095 1.44919C20.0454 1.26959 19.8519 1.12687 19.6395 1.02878C19.4193 0.926662 19.1831 0.874393 18.9446 0.875005C18.6101 0.875005 18.2836 0.977268 18 1.17043C17.9321 1.21664 17.8677 1.26739 17.8066 1.32269C17.7455 1.26739 17.681 1.21664 17.6132 1.17043C17.3295 0.977268 17.0031 0.875005 16.6686 0.875005C16.4277 0.875005 16.1942 0.926515 15.9737 1.02878C15.7606 1.12725 15.5685 1.26891 15.4036 1.44919C15.2394 1.62805 15.1082 1.84115 15.0175 2.0764C14.9232 2.32108 14.875 2.5809 14.875 2.8483C14.875 3.10054 14.9211 3.3634 15.0128 3.6308C15.0894 3.85426 15.1994 4.08605 15.3398 4.32012C15.5624 4.69054 15.8685 5.07687 16.2485 5.4685C16.8783 6.11767 17.5019 6.56612 17.5284 6.5843L17.6892 6.69944C17.7604 6.75019 17.8521 6.75019 17.9233 6.69944L18.0841 6.5843C18.1106 6.56536 18.7336 6.11767 19.364 5.4685C19.744 5.07687 20.0501 4.69054 20.2726 4.32012C20.4131 4.08605 20.5237 3.85426 20.5997 3.6308C20.6913 3.3634 20.7375 3.10054 20.7375 2.8483C20.7382 2.5809 20.69 2.32108 20.5957 2.0764Z" fill="#0C230C"/>
</g>
<defs>
<clipPath id="clip0_458_33761">
<rect width="21" height="21" fill="white"/>
</clipPath>
</defs>
</svg>
