<svg width="16" height="18" viewBox="0 0 16 18" fill="none" xmlns="http://www.w3.org/2000/svg">
<path d="M2.30004 4.3V2.725C2.30004 2.3638 2.36829 2.02465 2.50479 1.70755C2.64129 1.3852 2.83029 1.1059 3.07074 0.870701C3.30594 0.630251 3.58524 0.441251 3.90759 0.304751C4.22469 0.168251 4.56384 0.100002 4.92504 0.100002C5.22009 0.100002 5.50149 0.146201 5.77029 0.239651C6.03909 0.333101 6.28479 0.464351 6.50844 0.633401C6.95733 0.287338 7.50823 0.0997638 8.07504 0.100002C8.5924 0.0976949 9.09877 0.249308 9.52973 0.53556C9.9607 0.821812 10.2968 1.22977 10.4953 1.70755C10.6318 2.02465 10.7 2.3638 10.7 2.725V4.3H11.75C12.0285 4.3 12.2956 4.41063 12.4925 4.60754C12.6894 4.80445 12.8 5.07152 12.8 5.35V8.07055C12.325 7.66985 11.7236 7.45004 11.1022 7.45H8.60004V4.3H9.65004V2.725C9.65004 2.5066 9.60909 2.3008 9.52719 2.1097C9.40833 1.82324 9.20659 1.57882 8.94785 1.40782C8.6891 1.23682 8.38516 1.14704 8.07504 1.15C7.75269 1.15 7.46289 1.2403 7.20564 1.4209C7.43193 1.81824 7.55064 2.26774 7.55004 2.725V7.5046C6.95644 7.62818 6.42355 7.9525 6.04107 8.42296C5.65858 8.89341 5.44986 9.48128 5.45004 10.0876V13.1106C5.45004 13.8004 5.72094 14.464 6.20394 14.9565L8.10654 16.9H3.35004C2.51673 16.8998 1.71744 16.5695 1.12719 15.9813C0.839075 15.6938 0.608184 15.3542 0.446785 14.9806C0.280905 14.5917 0.19691 14.1728 0.200035 13.75V5.35C0.200035 5.07152 0.31066 4.80445 0.507573 4.60754C0.704487 4.41063 0.971558 4.3 1.25004 4.3H2.30004ZM6.50004 4.3V2.725C6.50004 2.5066 6.45909 2.3008 6.37719 2.1097C6.25833 1.82324 6.05659 1.57882 5.79785 1.40782C5.5391 1.23682 5.23516 1.14704 4.92504 1.15C4.70664 1.15 4.50084 1.19095 4.30974 1.27285C4.02327 1.3917 3.77885 1.59345 3.60786 1.85219C3.43686 2.11093 3.34708 2.41487 3.35004 2.725V4.3H6.50004ZM6.95364 14.2225C6.66252 13.9252 6.49965 13.5256 6.50004 13.1095V10.0876C6.49976 9.87921 6.54057 9.67282 6.62012 9.48021C6.69968 9.28761 6.81642 9.11258 6.96367 8.96513C7.11093 8.81768 7.28581 8.7007 7.47831 8.62089C7.6708 8.54108 7.87715 8.5 8.08554 8.5H11.1022C11.5253 8.5 11.9306 8.66905 12.2278 8.96935L15.4901 12.2664C15.6382 12.4159 15.7551 12.5933 15.834 12.7884C15.913 12.9835 15.9524 13.1923 15.9499 13.4027C15.9475 13.6131 15.9033 13.8209 15.8198 14.0141C15.7364 14.2073 15.6154 14.382 15.4639 14.5281L12.3695 17.5069C12.0687 17.7968 11.6655 17.956 11.2477 17.9499C10.83 17.9438 10.4316 17.7729 10.1393 17.4744L6.95364 14.2215V14.2225ZM8.60004 11.3875C8.60004 11.5964 8.683 11.7967 8.83069 11.9443C8.97837 12.092 9.17868 12.175 9.38754 12.175C9.59639 12.175 9.7967 12.092 9.94438 11.9443C10.0921 11.7967 10.175 11.5964 10.175 11.3875C10.175 11.1786 10.0921 10.9783 9.94438 10.8307C9.7967 10.683 9.59639 10.6 9.38754 10.6C9.17868 10.6 8.97837 10.683 8.83069 10.8307C8.683 10.9783 8.60004 11.1786 8.60004 11.3875Z" fill="#0C230C"/>
</svg>
