<svg width="21" height="21" viewBox="0 0 21 21" fill="none" xmlns="http://www.w3.org/2000/svg">
<path d="M17.0625 9.25313V1.3125H13.7812V2.625H15.75V3.9375H13.7812V5.25H15.75V9.25313C14.6344 9.51562 13.7812 10.5656 13.7812 11.8125C13.7812 13.2563 14.9625 14.4375 16.4062 14.4375C17.85 14.4375 19.0312 13.2563 19.0312 11.8125C19.0312 10.5656 18.1781 9.58125 17.0625 9.25313ZM16.4062 13.125C15.6844 13.125 15.0938 12.5344 15.0938 11.8125C15.0938 11.0906 15.6844 10.5 16.4062 10.5C17.1281 10.5 17.7188 11.0906 17.7188 11.8125C17.7188 12.5344 17.1281 13.125 16.4062 13.125Z" fill="#0C230C"/>
<path d="M9.84375 20.3438L6.23437 18.2437C4.00312 16.9312 2.625 14.5687 2.625 12.0094V2.625C2.625 1.90312 3.21562 1.3125 3.9375 1.3125H11.8125V3.5H4.375V12.0094C4.375 14.1094 5.05312 15.1375 6.89062 16.1875L9.84375 17.9594L12.7969 16.1875C13.5187 15.7281 14.175 15.5969 14.6344 14.875L15.6844 16.1438C15.0937 16.9969 14.3062 17.7187 13.3875 18.2437L9.84375 20.3438Z" fill="#0C230C"/>
</svg>
