<svg width="21" height="17" viewBox="0 0 21 17" fill="none" xmlns="http://www.w3.org/2000/svg">
<path d="M20.25 0.25H0.75C0.335156 0.25 0 0.585156 0 1V16C0 16.4148 0.335156 16.75 0.75 16.75H20.25C20.6648 16.75 21 16.4148 21 16V1C21 0.585156 20.6648 0.25 20.25 0.25ZM18.3563 2.80234L10.9617 8.55625C10.7789 8.69922 10.5234 8.69922 10.3406 8.55625L2.94375 2.80234C2.91587 2.78082 2.89541 2.75112 2.88526 2.71739C2.87511 2.68367 2.87576 2.64761 2.88713 2.61427C2.8985 2.58094 2.92002 2.552 2.94867 2.5315C2.97731 2.51101 3.01165 2.49999 3.04688 2.5H18.2531C18.2883 2.49999 18.3227 2.51101 18.3513 2.5315C18.38 2.552 18.4015 2.58094 18.4129 2.61427C18.4242 2.64761 18.4249 2.68367 18.4147 2.71739C18.4046 2.75112 18.3841 2.78082 18.3563 2.80234Z" fill="#0C230C"/>
</svg>
