<svg width="19" height="20" viewBox="0 0 19 20" fill="none" xmlns="http://www.w3.org/2000/svg">
<path d="M15.625 7.75H3.375C2.4085 7.75 1.625 8.5335 1.625 9.5V16.5C1.625 17.4665 2.4085 18.25 3.375 18.25H15.625C16.5915 18.25 17.375 17.4665 17.375 16.5V9.5C17.375 8.5335 16.5915 7.75 15.625 7.75Z" stroke="#0C230C" stroke-width="2" stroke-linecap="round" stroke-linejoin="round"/>
<path d="M4.25 4.25C4.25 3.55381 4.52656 2.88613 5.01884 2.39384C5.51113 1.90156 6.17881 1.625 6.875 1.625H12.125C12.8212 1.625 13.4889 1.90156 13.9812 2.39384C14.4734 2.88613 14.75 3.55381 14.75 4.25V7.75H4.25V4.25Z" stroke="#0C230C" stroke-width="2" stroke-linecap="round" stroke-linejoin="round"/>
</svg>
