<svg width="19" height="19" viewBox="0 0 19 19" fill="none" xmlns="http://www.w3.org/2000/svg">
<path d="M9.699 0.681641C6.57156 0.673438 3.81941 2.2915 2.24646 4.73604C2.17674 4.84473 2.25467 4.98828 2.38387 4.98828H3.82557C3.924 4.98828 4.01629 4.94522 4.07781 4.86934C4.22137 4.69502 4.37518 4.52686 4.53719 4.3669C5.20574 3.70039 5.98299 3.17539 6.84842 2.81035C7.74256 2.43301 8.69412 2.24023 9.67645 2.24023C10.6588 2.24023 11.6103 2.43096 12.5045 2.81035C13.3699 3.17539 14.1471 3.70039 14.8157 4.3669C15.4843 5.0334 16.0072 5.81065 16.3743 6.67403C16.7537 7.56817 16.9444 8.51768 16.9444 9.5C16.9444 10.4823 16.7516 11.4318 16.3743 12.326C16.0093 13.1894 15.4843 13.9666 14.8157 14.6331C14.1471 15.2996 13.3699 15.8246 12.5045 16.1897C11.6096 16.5676 10.6478 16.7615 9.67645 16.7598C8.69412 16.7598 7.74256 16.567 6.84842 16.1897C5.98469 15.825 5.19981 15.2964 4.53719 14.6331C4.37518 14.4711 4.22342 14.3029 4.07781 14.1307C4.01629 14.0548 3.92195 14.0117 3.82557 14.0117H2.38387C2.25467 14.0117 2.17469 14.1553 2.24646 14.264C3.81736 16.7023 6.55721 18.3184 9.67645 18.3184C14.5204 18.3184 18.4538 14.4198 18.503 9.59024C18.5522 4.68272 14.6127 0.693946 9.699 0.681641ZM7.10107 11.7969V10.2383H0.661621C0.571387 10.2383 0.497559 10.1645 0.497559 10.0742V8.92578C0.497559 8.83555 0.571387 8.76172 0.661621 8.76172H7.10107V7.20313C7.10107 7.06572 7.26103 6.98779 7.36768 7.07393L10.2777 9.3708C10.2973 9.38615 10.3132 9.40576 10.3241 9.42814C10.335 9.45053 10.3407 9.4751 10.3407 9.5C10.3407 9.5249 10.335 9.54948 10.3241 9.57186C10.3132 9.59424 10.2973 9.61385 10.2777 9.6292L7.36768 11.9261C7.26103 12.0102 7.10107 11.9343 7.10107 11.7969Z" fill="#0C230C"/>
</svg>
