<svg width="19" height="13" viewBox="0 0 19 13" fill="none" xmlns="http://www.w3.org/2000/svg">
<path d="M2.5 0.431885H16.5C16.9641 0.431885 17.4092 0.616259 17.7374 0.944448C18.0656 1.27264 18.25 1.71776 18.25 2.18188V10.9319C18.25 11.396 18.0656 11.8411 17.7374 12.1693C17.4092 12.4975 16.9641 12.6819 16.5 12.6819H2.5C2.03587 12.6819 1.59075 12.4975 1.26256 12.1693C0.934374 11.8411 0.75 11.396 0.75 10.9319V2.18188C0.75 1.71776 0.934374 1.27264 1.26256 0.944448C1.59075 0.616259 2.03587 0.431885 2.5 0.431885ZM5.125 7.43188C4.89294 7.43188 4.67038 7.52407 4.50628 7.68817C4.34219 7.85226 4.25 8.07482 4.25 8.30688C4.25 8.53895 4.34219 8.76151 4.50628 8.9256C4.67038 9.0897 4.89294 9.18188 5.125 9.18188H10.375C10.6071 9.18188 10.8296 9.0897 10.9937 8.9256C11.1578 8.76151 11.25 8.53895 11.25 8.30688C11.25 8.07482 11.1578 7.85226 10.9937 7.68817C10.8296 7.52407 10.6071 7.43188 10.375 7.43188H5.125ZM13.875 3.05688V4.80688H15.625V3.05688H13.875Z" fill="#0C230C"/>
</svg>
