<svg width="17" height="17" viewBox="0 0 17 17" fill="none" xmlns="http://www.w3.org/2000/svg">
<path d="M14.625 0.625H2.375C1.40987 0.625 0.625 1.40987 0.625 2.375V14.625C0.625 15.5901 1.40987 16.375 2.375 16.375H9.375C9.48993 16.3752 9.60375 16.3526 9.70992 16.3086C9.81609 16.2646 9.91251 16.2 9.99362 16.1186L16.1186 9.99362C16.1906 9.91903 16.2486 9.83222 16.2901 9.73725C16.3024 9.711 16.3094 9.68388 16.319 9.65588C16.3439 9.58266 16.3589 9.50644 16.3636 9.42925C16.3654 9.41088 16.375 9.39338 16.375 9.375V2.375C16.375 1.40987 15.5901 0.625 14.625 0.625ZM2.375 2.375H14.625V8.5H9.375C9.14294 8.5 8.92038 8.59219 8.75628 8.75628C8.59219 8.92038 8.5 9.14294 8.5 9.375V14.625H2.375V2.375ZM10.25 13.3878V10.25H13.3878L10.25 13.3878Z" fill="#0C230C"/>
</svg>
