<svg width="19" height="17" viewBox="0 0 19 17" fill="none" xmlns="http://www.w3.org/2000/svg">
<path d="M16.5 4.125V2.375C16.5 1.40987 15.7151 0.625 14.75 0.625H3.375C1.92775 0.625 0.75 1.80275 0.75 3.25V13.75C0.75 15.6759 2.31975 16.375 3.375 16.375H16.5C17.4651 16.375 18.25 15.5901 18.25 14.625V5.875C18.25 4.90987 17.4651 4.125 16.5 4.125ZM14.75 12H13V8.5H14.75V12ZM3.375 4.125C3.14971 4.11492 2.93698 4.01833 2.78112 3.85534C2.62525 3.69235 2.53827 3.47552 2.53827 3.25C2.53827 3.02448 2.62525 2.80765 2.78112 2.64466C2.93698 2.48167 3.14971 2.38508 3.375 2.375H14.75V4.125H3.375Z" fill="#0C230C"/>
</svg>
